<svg xmlns="http://www.w3.org/2000/svg" height="24" viewBox="0 -960 960 960" width="24"><path d="M380.001-380.001v-137.306l362.385-362.384q9.307-9.308 20.461-13.577 11.153-4.269 22.692-4.269 11.768 0 22.614 4.269t19.769 13.192l50.23 50.077q8.693 9.307 13.346 20.538 4.654 11.23 4.654 22.768 0 11.539-3.961 22.385-3.962 10.845-13.269 20.153L515.384-380.001H380.001Zm401.306-351.076 55.462-55.231-50.23-51.384-56.231 55.615 50.999 51ZM212.309-140.001q-30.308 0-51.308-21t-21-51.308v-535.382q0-30.308 21-51.308t51.308-21h346.23l-266.23 266.23v261.46H551.23l268.769-268.768v348.768q0 30.308-21 51.308t-51.308 21H212.309Z"/></svg>