<svg xmlns="http://www.w3.org/2000/svg" height="24" viewBox="0 -960 960 960" width="24"><path d="M212.309-140.001q-30.308 0-51.308-21t-21-51.308v-535.382q0-30.308 21-51.308t51.308-21h535.382q30.308 0 51.308 21t21 51.308v535.382q0 30.308-21 51.308t-51.308 21H212.309Zm0-59.999h535.382q5.385 0 8.847-3.462 3.462-3.462 3.462-8.847v-115.384H628.461q-26.154 38-64.961 59-38.808 21-83.5 21t-83.5-21q-38.807-21-64.961-59H200v115.384q0 5.385 3.462 8.847 3.462 3.462 8.847 3.462ZM480-307.691q38 0 69-22t43-58h168v-360q0-5.385-3.462-8.847-3.462-3.462-8.847-3.462H212.309q-5.385 0-8.847 3.462-3.462 3.462-3.462 8.847v360h168q12 36 43 58t69 22ZM212.309-200H200h560H212.309Z"/></svg>