<svg xmlns="http://www.w3.org/2000/svg" height="24" viewBox="0 -960 960 960" width="24"><path d="M480-492.309q-57.749 0-98.874-41.124-41.125-41.125-41.125-98.874 0-57.75 41.125-98.874 41.125-41.125 98.874-41.125 57.749 0 98.874 41.125 41.125 41.124 41.125 98.874 0 57.749-41.125 98.874-41.125 41.124-98.874 41.124ZM180.001-187.694v-88.922q0-29.384 15.962-54.422 15.961-25.038 42.653-38.5 59.308-29.077 119.654-43.615T480-427.691q61.384 0 121.73 14.538 60.346 14.538 119.654 43.615 26.692 13.462 42.653 38.5 15.962 25.038 15.962 54.422v88.922H180.001Z"/></svg>