<svg xmlns="http://www.w3.org/2000/svg" height="24" viewBox="0 -960 960 960" width="24"><path d="M71.925-187.694v-88.922q0-30.923 15.962-55.191 15.961-24.269 42.632-37.764 57.021-27.89 114.674-43.005 57.654-15.115 126.731-15.115t126.73 15.115q57.654 15.115 114.675 43.005 26.671 13.495 42.632 37.764 15.961 24.268 15.961 55.191v88.922H71.925Zm679.997 0v-93.845q0-39.384-19.286-75.069-19.287-35.685-54.712-61.237 40.23 6 76.383 18.577 36.153 12.577 68.999 29.73 31 16.538 47.884 38.984 16.885 22.447 16.885 49.015v93.845H751.922ZM371.924-492.309q-57.749 0-98.874-41.124-41.125-41.125-41.125-98.874 0-57.75 41.125-98.874 41.125-41.125 98.874-41.125 57.749 0 98.874 41.125 41.124 41.124 41.124 98.874 0 57.749-41.124 98.874-41.125 41.124-98.874 41.124Zm345.381-139.998q0 57.749-41.125 98.874-41.125 41.124-98.874 41.124-6.769 0-17.23-1.538t-17.23-3.384q23.662-28.447 36.369-63.117t12.707-72.007q0-37.336-12.961-71.721Q566-738.46 542.846-767.383q8.615-3.077 17.23-4t17.23-.923q57.749 0 98.874 41.125 41.125 41.124 41.125 98.874Z"/></svg>